<svg width="16" height="16" viewBox="0 0 16 16" fill="none" xmlns="http://www.w3.org/2000/svg">
<g clip-path="url(#clip0_686_420)">
<path d="M6.62625 10.3322C6.56674 10.1015 6.44648 9.89093 6.278 9.72245C6.10952 9.55397 5.89897 9.43372 5.66825 9.3742L1.57825 8.31953C1.50847 8.29972 1.44706 8.2577 1.40333 8.19983C1.3596 8.14196 1.33594 8.0714 1.33594 7.99886C1.33594 7.92633 1.3596 7.85577 1.40333 7.7979C1.44706 7.74003 1.50847 7.698 1.57825 7.6782L5.66825 6.62286C5.89889 6.5634 6.10938 6.44325 6.27786 6.27489C6.44633 6.10653 6.56663 5.89612 6.62625 5.66553L7.68092 1.57553C7.70053 1.50548 7.74251 1.44376 7.80047 1.39979C7.85843 1.35583 7.92917 1.33203 8.00192 1.33203C8.07467 1.33203 8.14542 1.35583 8.20337 1.39979C8.26133 1.44376 8.30332 1.50548 8.32292 1.57553L9.37692 5.66553C9.43644 5.89625 9.5567 6.1068 9.72518 6.27528C9.89366 6.44376 10.1042 6.56401 10.3349 6.62353L14.4249 7.67753C14.4953 7.69693 14.5573 7.73887 14.6015 7.79692C14.6457 7.85496 14.6696 7.9259 14.6696 7.99886C14.6696 8.07182 14.6457 8.14277 14.6015 8.20081C14.5573 8.25886 14.4953 8.3008 14.4249 8.3202L10.3349 9.3742C10.1042 9.43372 9.89366 9.55397 9.72518 9.72245C9.5567 9.89093 9.43644 10.1015 9.37692 10.3322L8.32225 14.4222C8.30265 14.4923 8.26067 14.554 8.20271 14.5979C8.14475 14.6419 8.074 14.6657 8.00125 14.6657C7.92851 14.6657 7.85776 14.6419 7.7998 14.5979C7.74184 14.554 7.69986 14.4923 7.68025 14.4222L6.62625 10.3322Z" stroke="#0F7C8C" style="stroke:#0F7C8C;stroke:color(display-p3 0.0588 0.4863 0.5490);stroke-opacity:1;" stroke-width="1.33333" stroke-linecap="round" stroke-linejoin="round"/>
<path d="M13.332 2V4.66667" stroke="#0F7C8C" style="stroke:#0F7C8C;stroke:color(display-p3 0.0588 0.4863 0.5490);stroke-opacity:1;" stroke-width="1.33333" stroke-linecap="round" stroke-linejoin="round"/>
<path d="M14.6667 3.33203H12" stroke="#0F7C8C" style="stroke:#0F7C8C;stroke:color(display-p3 0.0588 0.4863 0.5490);stroke-opacity:1;" stroke-width="1.33333" stroke-linecap="round" stroke-linejoin="round"/>
<path d="M2.66797 11.332V12.6654" stroke="#0F7C8C" style="stroke:#0F7C8C;stroke:color(display-p3 0.0588 0.4863 0.5490);stroke-opacity:1;" stroke-width="1.33333" stroke-linecap="round" stroke-linejoin="round"/>
<path d="M3.33333 12H2" stroke="#0F7C8C" style="stroke:#0F7C8C;stroke:color(display-p3 0.0588 0.4863 0.5490);stroke-opacity:1;" stroke-width="1.33333" stroke-linecap="round" stroke-linejoin="round"/>
</g>
<defs>
<clipPath id="clip0_686_420">
<rect width="16" height="16" fill="white" style="fill:white;fill-opacity:1;"/>
</clipPath>
</defs>
</svg>
